<svg width="17" height="17" viewBox="0 0 17 17" fill="none" xmlns="http://www.w3.org/2000/svg">
<path d="M6.47559 0.0078125C9.72984 0.17691 12.3172 2.9382 12.3174 6.31934C12.3174 7.71333 11.8758 9.00077 11.1309 10.0459L16.5674 15.625L15.2275 17L9.79102 11.4219C8.77266 12.1867 7.51784 12.6396 6.15918 12.6396L5.8418 12.6309C2.5877 12.4615 0 9.70041 0 6.31934C0.000139635 2.82924 2.75778 0 6.15918 0L6.47559 0.0078125ZM6.15918 2C3.91059 2 2.00014 3.88495 2 6.31934C2 8.75385 3.9105 10.6396 6.15918 10.6396C8.40775 10.6395 10.3174 8.75376 10.3174 6.31934C10.3172 3.88504 8.40767 2.00014 6.15918 2Z" fill="#212121"/>
</svg>
