<svg width="146" height="202" viewBox="0 0 146 202" fill="none" xmlns="http://www.w3.org/2000/svg">
<path d="M73.1381 70.1169C78.6014 70.1169 83.0302 65.6937 83.0302 60.2374C83.0302 54.7811 78.6014 50.3579 73.1381 50.3579C67.6748 50.3579 63.246 54.7811 63.246 60.2374C63.246 65.6937 67.6748 70.1169 73.1381 70.1169Z" fill="white"/>
<path d="M73.3772 146L106.203 113.216L92.2711 99.3027L72.998 118.551L53.7083 99.3192L39.7769 113.233L72.5858 146" fill="white"/>
<path d="M125.344 29.6356C121.013 22.4095 115.23 16.1586 108.359 11.2774C101.487 6.39625 93.6772 2.99084 85.4217 1.27618C77.1661 -0.438483 68.6443 -0.425152 60.3941 1.31533C52.144 3.05581 44.3447 6.48563 37.4887 11.3883C30.6328 16.2909 24.8689 22.5599 20.5612 29.7995C16.2534 37.039 13.4952 45.0919 12.4608 53.4498C11.4263 61.8076 12.1381 70.2889 14.5511 78.3582C16.9641 86.4274 21.026 93.9094 26.4803 100.332L40.2468 86.5828C34.4834 79.2686 31.3558 70.2283 31.3686 60.9208C31.3686 49.894 35.7546 39.3189 43.5616 31.5218C51.3686 23.7247 61.9572 19.3444 72.998 19.3444C84.0387 19.3444 94.6273 23.7247 102.434 31.5218C110.241 39.3189 114.627 49.894 114.627 60.9208C114.642 70.2286 111.514 79.2695 105.749 86.5828L119.516 100.332C127.756 90.6309 132.749 78.5969 133.794 65.9182C134.839 53.2395 131.884 40.552 125.344 29.6356Z" fill="white"/>
<path d="M27.5379 165.243V201.282H19.8662V198.862C18.1777 200.818 15.6679 202 12.2351 202C5.52685 202 0 196.085 0 188.418C0 180.751 5.52685 174.836 12.2351 174.836C15.6679 174.836 18.1777 176.018 19.8662 177.974V165.243H27.5379ZM19.8662 188.398C19.8662 184.541 17.3056 182.121 13.7816 182.121C10.2576 182.121 7.69702 184.541 7.69702 188.398C7.69702 192.254 10.2323 194.674 13.7816 194.674C17.331 194.674 19.8662 192.254 19.8662 188.398Z" fill="white"/>
<path d="M47.5207 175.019V183.767C44.3466 183.257 39.8389 184.541 39.8389 189.631V201.282H32.1571V175.534H39.8389V180.119C40.8631 176.665 44.2959 175.019 47.5207 175.019Z" fill="white"/>
<path d="M49.8481 168.641C49.8461 167.724 50.1152 166.827 50.6214 166.063C51.1275 165.3 51.8478 164.705 52.691 164.353C53.5342 164.002 54.4623 163.91 55.3576 164.089C56.2529 164.268 57.0751 164.711 57.7199 165.36C58.3647 166.009 58.8031 166.836 58.9794 167.736C59.1558 168.636 59.0622 169.568 58.7105 170.415C58.3589 171.261 57.765 171.984 57.0041 172.491C56.2433 172.997 55.3498 173.266 54.4369 173.262C53.2234 173.245 52.0646 172.752 51.2075 171.889C50.3503 171.026 49.8625 169.86 49.8481 168.641ZM50.6137 175.534H58.2956V201.282H50.5935L50.6137 175.534Z" fill="white"/>
<path d="M88.2369 175.534L78.75 201.282H70.0541L60.5824 175.554H69.0805L74.4096 191.857L79.7336 175.554L88.2369 175.534Z" fill="white"/>
<path d="M102.52 195.087C103.43 195.114 104.335 194.954 105.18 194.618C106.026 194.282 106.794 193.775 107.439 193.13L113.584 196.697C111.074 200.197 107.287 201.995 102.429 201.995C93.6724 201.995 88.2318 196.08 88.2318 188.413C88.2318 180.746 93.7586 174.831 101.851 174.831C109.33 174.831 114.862 180.644 114.862 188.413C114.865 189.45 114.761 190.484 114.553 191.5H96.38C97.3485 194.149 99.7063 195.087 102.52 195.087ZM107.236 185.723C106.415 182.738 104.113 181.647 101.805 181.647C98.8849 181.647 96.9429 183.089 96.2279 185.723H107.236Z" fill="white"/>
<path d="M117.428 168.641C117.426 167.725 117.694 166.828 118.2 166.066C118.705 165.303 119.424 164.708 120.266 164.355C121.108 164.003 122.035 163.91 122.93 164.088C123.824 164.265 124.647 164.706 125.292 165.353C125.938 166 126.378 166.825 126.557 167.724C126.735 168.622 126.645 169.554 126.296 170.401C125.947 171.248 125.357 171.971 124.599 172.481C123.84 172.99 122.949 173.262 122.037 173.262C120.82 173.25 119.656 172.76 118.794 171.896C117.933 171.032 117.442 169.864 117.428 168.641ZM118.193 175.534H125.875V201.282H118.193V175.534Z" fill="white"/>
<path d="M140.727 182.941V192.05C140.727 194.261 142.623 194.47 146 194.261V201.282C135.965 202.301 133.045 199.274 133.045 192.071V182.941H128.948V175.534H133.045V170.648L140.727 168.33V175.534H146V182.941H140.727Z" fill="white"/>
</svg>
