<svg width="28" height="28" viewBox="0 0 28 28" fill="none" xmlns="http://www.w3.org/2000/svg">
<path fill-rule="evenodd" clip-rule="evenodd" d="M4.01291 14.5126C9.9501 14.8514 12.1753 18.0686 12.5069 23.8893C7.85727 23.1932 4.25443 19.2961 4.01291 14.5126ZM4.58541 10.6207C5.97111 6.76073 9.66315 4 14 4C18.3368 4 22.0289 6.76073 23.4146 10.6207H4.58541ZM15.525 23.8845C15.8535 18.0669 18.0544 14.8514 23.9871 14.5126C23.7461 19.2852 20.1592 23.1753 15.525 23.8845ZM28 14C28 21.732 21.732 28 14 28C6.26801 28 0 21.732 0 14C0 6.26801 6.26801 0 14 0C21.732 0 28 6.26801 28 14Z" fill="#304FFE"/>
</svg>
